<?xml version="1.0" standalone="no"?>
<!DOCTYPE svg PUBLIC "-//W3C//DTD SVG 20010904//EN"
 "http://www.w3.org/TR/2001/REC-SVG-20010904/DTD/svg10.dtd">
<svg version="1.0" xmlns="http://www.w3.org/2000/svg"
 width="3548.000000pt" height="3548.000000pt" viewBox="0 0 3548.000000 3548.000000"
 preserveAspectRatio="xMidYMid meet">
<metadata>
Created by potrace 1.14, written by Peter Selinger 2001-2017
</metadata>
<g transform="translate(0.000000,3548.000000) scale(0.100000,-0.100000)"
fill="#000000" stroke="none">
<path d="M25705 35450 c-27 -4 -70 -11 -95 -14 -25 -4 -66 -11 -91 -17 -26 -6
-53 -12 -60 -13 -141 -27 -418 -148 -568 -248 -293 -196 -511 -443 -658 -748
-46 -95 -101 -238 -105 -270 0 -3 -5 -16 -10 -30 -12 -32 -37 -143 -44 -195
-2 -22 -7 -46 -9 -53 -16 -46 -18 -875 -19 -6839 l0 -6642 -30 4 c-17 2 -58 6
-91 10 -33 3 -71 7 -85 9 -14 2 -50 7 -80 11 -83 9 -193 25 -430 60 -46 7
-448 74 -480 81 -14 2 -63 11 -110 20 -47 8 -146 26 -220 40 -74 14 -159 29
-187 35 -29 5 -77 13 -105 18 -29 6 -109 21 -178 34 -69 14 -141 28 -160 31
-19 3 -44 7 -55 10 -11 2 -54 10 -95 17 -41 7 -77 13 -80 14 -3 1 -27 5 -55
10 -27 5 -52 10 -55 10 -3 1 -27 5 -55 10 -27 4 -59 9 -70 11 -44 9 -143 25
-200 34 -33 5 -70 12 -81 14 -12 2 -39 7 -60 10 -22 4 -79 13 -129 21 -49 7
-108 16 -130 19 -22 3 -103 15 -180 25 -198 28 -343 46 -450 56 -27 3 -66 7
-85 9 -19 3 -69 8 -110 11 -41 3 -91 7 -110 10 -40 5 -181 15 -285 20 -222 12
-310 16 -500 21 -394 10 -749 30 -1055 59 -19 2 -71 6 -115 10 -44 3 -96 8
-115 10 -19 2 -64 7 -100 11 -36 3 -76 7 -90 9 -14 1 -54 5 -90 9 -36 4 -81 9
-100 11 -19 3 -57 7 -85 10 -27 3 -84 10 -125 15 -41 6 -97 12 -125 15 -27 3
-81 10 -120 15 -38 5 -90 12 -115 15 -25 4 -56 8 -70 10 -14 2 -95 13 -180 25
-85 12 -166 23 -180 25 -14 3 -45 7 -70 10 -25 3 -54 8 -65 10 -17 3 -175 27
-335 50 -20 3 -47 8 -60 10 -14 3 -43 7 -65 10 -22 3 -47 8 -55 10 -9 3 -34 7
-55 9 -22 3 -58 7 -80 11 -88 14 -512 84 -540 89 -16 3 -73 12 -125 20 -52 9
-106 18 -120 20 -67 12 -330 56 -365 61 -22 3 -62 10 -90 15 -27 5 -63 12 -80
14 -77 13 -162 26 -185 30 -14 3 -81 14 -150 26 -69 11 -136 22 -150 25 -14 2
-43 6 -65 9 -22 4 -76 13 -120 21 -44 8 -100 17 -125 20 -41 6 -315 49 -480
76 -36 6 -78 12 -95 14 -48 6 -106 15 -165 25 -30 5 -71 11 -90 14 -80 11
-488 67 -525 72 -22 3 -51 7 -65 9 -14 3 -101 14 -195 25 -93 12 -181 23 -195
25 -14 2 -52 6 -85 10 -33 3 -71 8 -85 10 -14 2 -54 7 -90 10 -36 3 -76 7 -90
9 -14 2 -56 7 -95 10 -38 4 -86 9 -105 11 -19 2 -66 7 -105 10 -38 4 -72 9
-74 11 -2 2 -5 122 -7 266 -3 330 -13 1014 -19 1298 -4 200 -10 459 -20 990
-3 118 -7 325 -10 460 -5 263 -12 622 -21 1080 -3 157 -7 1673 -9 3370 -3
2773 -5 3194 -19 3265 -2 11 -7 42 -10 69 -4 27 -9 52 -11 56 -2 4 -6 17 -8
31 -3 13 -10 42 -16 64 -6 22 -10 42 -10 45 1 15 -76 213 -113 288 -42 87
-119 217 -167 282 -79 109 -231 270 -326 345 -27 22 -52 43 -55 46 -15 18
-217 143 -295 182 -154 76 -362 147 -484 163 -25 3 -49 8 -53 11 -28 16 -411
25 -513 11 -235 -33 -406 -83 -597 -178 -379 -188 -660 -466 -848 -840 -76
-152 -150 -369 -166 -490 -2 -19 -6 -42 -9 -50 -2 -8 -8 -49 -12 -90 -10 -95
-9 -6051 1 -6650 12 -745 20 -1182 31 -1675 3 -104 7 -316 10 -470 3 -154 8
-374 10 -490 13 -634 19 -1181 19 -1870 l1 -770 -28 -110 c-15 -60 -30 -139
-34 -175 -9 -85 -10 -367 -1 -450 7 -68 36 -219 45 -233 5 -8 4 -141 -2 -312
-10 -278 -17 -458 -20 -520 -2 -38 -7 -126 -10 -195 -3 -69 -8 -154 -10 -189
-2 -35 -6 -114 -10 -175 -3 -61 -8 -138 -10 -171 -3 -33 -7 -98 -10 -145 -2
-47 -7 -108 -9 -135 -3 -28 -8 -86 -11 -130 -3 -44 -8 -100 -10 -125 -2 -25
-7 -81 -10 -125 -7 -82 -11 -133 -20 -220 -2 -27 -7 -77 -10 -110 -3 -33 -7
-73 -9 -90 -3 -16 -7 -61 -11 -100 -3 -38 -8 -83 -10 -100 -2 -16 -7 -61 -11
-100 -3 -38 -7 -77 -9 -85 -2 -8 -6 -46 -10 -85 -4 -38 -9 -79 -11 -90 -2 -11
-6 -45 -9 -75 -6 -59 -29 -251 -40 -320 -2 -14 -6 -50 -9 -80 -3 -30 -8 -64
-10 -75 -4 -21 -12 -77 -21 -155 -3 -25 -8 -57 -10 -71 -3 -15 -7 -47 -10 -70
-10 -82 -28 -222 -39 -299 -3 -19 -8 -57 -11 -85 -4 -27 -13 -93 -20 -145 -17
-120 -21 -147 -40 -300 -8 -69 -18 -140 -20 -158 -3 -18 -7 -54 -10 -80 -3
-26 -7 -60 -10 -77 -2 -16 -7 -52 -10 -80 -4 -27 -8 -61 -10 -75 -2 -14 -7
-52 -10 -85 -8 -76 -13 -121 -19 -165 -7 -47 -16 -125 -21 -180 -3 -25 -7 -63
-10 -85 -2 -22 -7 -62 -10 -90 -3 -27 -7 -70 -10 -95 -3 -25 -7 -72 -10 -105
-3 -33 -8 -76 -10 -95 -3 -19 -8 -66 -11 -105 -3 -38 -7 -86 -9 -105 -7 -70
-17 -186 -20 -230 -1 -25 -5 -76 -9 -115 -8 -98 -17 -218 -21 -300 -2 -38 -7
-124 -11 -190 -15 -290 -23 -601 -30 -1250 -2 -264 -6 -529 -8 -590 -4 -114
-17 -439 -21 -510 -7 -131 -17 -287 -20 -330 -7 -101 -16 -211 -21 -265 -2
-30 -7 -84 -10 -120 -8 -104 -14 -162 -19 -200 -2 -19 -7 -59 -10 -87 -8 -81
-15 -144 -20 -183 -21 -144 -27 -416 -13 -535 21 -170 66 -349 123 -482 31
-73 98 -208 111 -223 7 -8 13 -19 13 -25 1 -14 140 -210 187 -264 211 -241
450 -410 743 -525 101 -40 249 -82 321 -92 25 -3 48 -8 51 -10 30 -18 406 -26
524 -11 255 33 504 117 720 245 170 100 362 263 475 401 19 24 40 48 45 55 36
38 137 197 184 291 76 148 97 199 136 334 35 122 39 140 55 261 6 41 13 91 16
110 3 19 7 55 9 80 6 52 13 120 20 170 5 45 14 130 20 200 5 57 12 142 20 220
4 41 7 78 21 260 2 36 7 90 9 120 3 30 7 98 10 150 3 52 7 140 11 195 7 121
10 187 19 415 13 314 14 379 19 910 5 510 14 938 21 1050 2 30 7 111 10 180 4
69 8 141 10 160 2 19 6 78 10 130 3 52 8 106 10 120 2 14 7 61 10 105 3 44 8
100 10 125 3 25 7 65 10 90 2 25 7 72 10 105 3 33 8 76 10 95 3 19 7 60 10 90
3 30 10 89 15 130 9 71 12 93 26 215 3 28 7 61 9 75 2 14 6 48 10 75 3 28 7
61 9 75 3 14 7 50 11 81 3 31 7 65 9 75 2 11 7 44 10 74 4 30 8 66 10 80 3 14
10 68 16 120 6 52 15 120 20 150 5 30 12 75 14 100 4 38 18 141 41 305 2 17 7
53 10 80 4 28 9 64 12 80 2 17 6 44 8 60 7 73 16 142 22 170 3 17 7 41 8 55 8
76 21 179 30 240 2 14 7 54 10 90 4 36 9 72 10 80 2 8 6 42 9 75 4 33 8 71 11
85 2 14 7 50 10 80 3 30 8 71 10 90 3 19 7 58 10 85 6 62 15 142 20 175 2 14
7 59 11 100 10 108 11 119 17 180 4 30 9 78 11 105 3 28 10 97 15 155 6 58 13
141 16 185 3 44 8 96 10 115 2 19 7 73 10 120 4 47 8 105 10 130 2 25 7 88 10
140 4 52 8 115 10 140 2 25 7 97 10 160 4 63 8 133 10 155 2 22 4 60 4 84 l1
43 68 -7 c37 -3 78 -8 92 -10 14 -2 52 -6 85 -10 76 -8 122 -13 210 -25 39 -5
93 -12 120 -15 28 -3 61 -8 75 -10 14 -2 48 -6 75 -10 28 -3 61 -8 75 -10 14
-2 47 -7 74 -10 27 -3 92 -12 145 -20 53 -8 115 -17 139 -20 24 -3 53 -7 65
-10 12 -3 40 -7 62 -9 22 -3 72 -10 110 -16 39 -6 86 -14 105 -16 30 -3 141
-20 190 -29 23 -4 102 -16 130 -20 38 -5 113 -17 135 -21 11 -2 90 -15 175
-29 85 -14 182 -30 215 -36 33 -6 67 -11 75 -11 8 0 31 -4 50 -8 19 -5 55 -11
80 -14 25 -3 55 -8 66 -10 12 -2 38 -7 58 -10 20 -3 52 -9 72 -12 20 -3 45 -7
54 -9 10 -2 40 -7 67 -11 26 -3 57 -8 68 -11 11 -2 72 -13 135 -23 63 -11 124
-22 135 -24 11 -2 56 -9 100 -16 44 -7 89 -14 100 -16 24 -5 177 -31 225 -38
19 -3 46 -8 60 -10 14 -2 59 -10 100 -16 41 -6 98 -15 125 -21 56 -10 395 -64
465 -74 52 -7 83 -12 160 -25 30 -5 73 -12 95 -15 47 -6 88 -13 170 -25 33 -5
76 -11 95 -14 19 -2 80 -11 135 -20 55 -8 123 -18 150 -21 28 -3 77 -10 110
-15 33 -5 83 -12 110 -15 28 -3 59 -7 70 -9 11 -2 49 -7 85 -11 36 -4 72 -8
80 -10 14 -3 79 -11 163 -21 20 -2 54 -6 75 -9 51 -7 100 -12 222 -25 58 -6
116 -13 130 -15 23 -3 66 -8 200 -21 30 -2 71 -7 90 -9 19 -2 67 -7 105 -10
39 -3 90 -8 115 -10 25 -3 81 -7 125 -10 44 -3 96 -8 115 -10 19 -2 71 -7 115
-10 44 -3 109 -7 145 -10 36 -2 117 -7 180 -10 63 -3 142 -8 175 -10 76 -5
321 -14 535 -20 239 -7 437 -17 560 -29 30 -3 82 -8 115 -11 33 -3 71 -8 85
-10 14 -2 50 -7 80 -10 84 -8 284 -35 460 -61 129 -20 578 -97 815 -140 77
-15 151 -28 165 -30 14 -3 95 -18 180 -34 85 -16 166 -31 180 -34 25 -4 291
-53 332 -62 25 -4 184 -32 233 -40 17 -3 37 -7 45 -9 8 -2 33 -6 55 -10 75
-10 110 -16 155 -25 25 -5 62 -12 83 -15 68 -9 111 -16 227 -35 116 -19 208
-32 245 -35 11 -1 40 -5 65 -9 111 -17 160 -23 235 -30 33 -3 71 -8 85 -11 28
-5 82 -11 183 -20 37 -4 76 -8 85 -10 9 -1 64 -6 122 -11 58 -4 116 -9 130
-10 14 -1 37 -3 51 -3 l26 -1 -1 -2267 c-1 -1949 3 -2470 19 -2723 1 -25 6
-99 11 -165 5 -66 7 -271 6 -455 -7 -690 -7 -1369 1 -1475 17 -228 26 -309 53
-490 8 -55 17 -109 18 -120 2 -11 6 -33 10 -50 3 -16 8 -41 11 -55 3 -14 7
-36 10 -50 3 -14 7 -34 9 -46 9 -44 38 -160 47 -184 5 -14 10 -34 12 -45 5
-28 42 -145 79 -245 34 -94 67 -174 148 -355 34 -75 93 -220 102 -250 9 -31
14 -90 23 -285 3 -63 7 -126 9 -140 3 -14 7 -46 10 -72 4 -25 18 -93 32 -149
144 -583 567 -1062 1130 -1283 98 -38 292 -92 364 -101 25 -3 68 -9 95 -13 64
-9 352 -9 430 0 138 16 357 70 468 116 42 17 236 113 272 135 168 101 360 266
474 407 20 25 41 51 48 58 26 27 124 182 166 262 82 154 165 386 183 510 3 19
7 41 10 49 26 76 25 582 -1 821 -19 171 -44 321 -75 460 -12 52 -23 102 -25
110 -18 87 -108 372 -158 500 -42 109 -154 373 -182 431 -54 111 -61 199 -57
759 7 1209 6 1332 -13 1520 -16 157 -19 1633 -20 11170 -1 5948 -5 10840 -9
10870 -13 92 -34 204 -45 233 -6 15 -8 27 -6 27 2 0 0 11 -5 25 -5 14 -12 36
-14 48 -5 25 -49 146 -71 192 -64 140 -122 247 -137 253 -4 2 -8 8 -8 14 0 27
-141 202 -254 314 -183 181 -334 284 -596 402 -52 24 -218 80 -258 87 -15 3
-38 7 -52 10 -43 10 -123 24 -165 31 -64 9 -385 12 -440 4z"/>
<path d="M17799 4336 c-2 -2 -76 -6 -164 -10 -161 -7 -215 -10 -335 -21 -36
-4 -83 -8 -105 -10 -83 -8 -161 -16 -185 -20 -14 -2 -52 -6 -85 -10 -33 -3
-67 -7 -75 -10 -8 -2 -37 -6 -65 -10 -120 -14 -470 -82 -580 -112 -11 -3 -249
-6 -530 -8 -280 -2 -539 -5 -575 -9 -94 -8 -171 -16 -205 -21 -16 -3 -52 -7
-80 -11 -98 -12 -111 -14 -275 -46 -58 -11 -116 -22 -130 -25 -34 -6 -318 -73
-517 -122 -88 -21 -187 -42 -220 -45 -32 -4 -434 -9 -893 -12 -962 -6 -1523
-13 -2370 -29 -124 -3 -353 -7 -510 -10 -157 -3 -382 -7 -500 -10 -118 -3
-323 -7 -455 -10 -132 -3 -350 -7 -485 -10 -135 -3 -342 -7 -460 -10 -118 -2
-345 -7 -505 -10 -159 -3 -393 -8 -520 -10 -299 -6 -831 -15 -1160 -20 -143
-2 -669 -6 -1170 -9 -1074 -7 -1074 -7 -1275 -52 -199 -45 -427 -139 -572
-236 -31 -21 -60 -38 -63 -38 -12 0 -190 -148 -255 -212 -188 -186 -333 -403
-428 -640 -38 -95 -87 -262 -98 -333 -3 -16 -7 -41 -10 -55 -14 -80 -19 -152
-19 -295 0 -142 10 -298 20 -314 1 -3 6 -24 9 -46 22 -139 97 -352 178 -505
47 -89 133 -229 147 -240 3 -3 19 -23 36 -45 42 -57 80 -99 165 -183 245 -243
555 -411 898 -487 l122 -27 1688 5 c928 3 1752 8 1832 10 80 3 300 8 490 12
190 3 435 8 545 10 110 2 306 6 435 9 129 3 354 8 500 11 146 3 351 8 455 10
382 9 1643 32 2250 40 143 3 662 7 1154 10 492 3 931 7 975 10 112 7 240 19
316 30 19 3 55 7 80 10 102 12 344 60 530 105 69 17 136 33 150 36 14 3 34 8
45 11 11 4 25 8 30 9 160 37 278 64 310 70 22 4 261 8 530 9 270 1 528 5 575
9 124 10 181 16 220 21 227 31 240 33 370 62 140 30 248 53 275 58 37 6 169
24 230 30 33 4 71 8 84 10 164 27 1031 27 1521 0 73 -3 309 -14 445 -20 50 -2
144 -6 210 -10 179 -9 302 -14 485 -21 91 -4 1823 -8 3850 -10 2027 -1 3719
-5 3760 -7 41 -3 138 -8 215 -12 77 -4 156 -8 175 -10 19 -2 80 -6 135 -10 55
-3 120 -8 145 -10 25 -2 73 -7 108 -10 139 -12 189 -16 222 -20 19 -2 69 -7
110 -10 41 -4 91 -8 110 -10 19 -2 73 -6 119 -10 47 -4 92 -8 100 -10 9 -1 51
-6 93 -10 43 -3 90 -8 106 -10 15 -2 66 -6 112 -10 47 -3 96 -8 110 -10 14 -2
57 -6 95 -10 39 -3 88 -8 110 -10 22 -2 72 -6 110 -10 39 -3 90 -7 115 -10 25
-2 81 -7 125 -10 44 -3 96 -8 115 -10 19 -2 85 -7 145 -11 61 -4 126 -8 145
-9 19 -1 98 -6 175 -10 77 -4 160 -9 185 -10 67 -4 614 -19 695 -18 78 0 259
12 278 18 7 2 31 6 54 9 86 11 261 59 373 103 439 172 788 498 995 927 63 131
94 216 137 376 22 81 23 102 23 415 0 340 -2 365 -36 481 -11 38 -21 78 -23
89 -2 11 -8 31 -14 45 -5 14 -18 45 -27 70 -34 87 -109 236 -154 305 -25 39
-48 75 -51 80 -20 41 -178 225 -252 293 -87 80 -113 102 -189 157 -227 164
-551 298 -799 330 -19 3 -51 7 -70 10 -19 3 -116 8 -215 10 -266 5 -584 16
-635 20 -25 2 -96 7 -158 10 -111 6 -142 8 -297 20 -161 12 -200 16 -225 19
-14 3 -70 7 -125 11 -55 3 -107 8 -115 10 -8 2 -55 6 -103 10 -48 3 -96 8
-105 10 -9 1 -55 6 -102 9 -47 4 -101 9 -120 11 -19 2 -66 7 -105 11 -38 3
-81 8 -95 9 -23 2 -111 11 -220 21 -25 2 -70 6 -100 9 -30 4 -80 8 -110 10
-92 7 -180 14 -234 19 -28 3 -87 8 -131 11 -44 3 -102 8 -130 10 -27 2 -90 7
-140 10 -49 3 -115 8 -145 10 -30 2 -120 7 -200 10 -80 4 -185 9 -235 12 -49
2 -1759 6 -3800 7 -2040 2 -3777 6 -3859 10 -242 11 -463 22 -811 41 -44 2
-154 7 -245 10 -91 4 -201 9 -245 11 -102 6 -1151 15 -1156 10z"/>
</g>
</svg>
