<?xml version="1.0" standalone="no"?>
<!DOCTYPE svg PUBLIC "-//W3C//DTD SVG 20010904//EN"
 "http://www.w3.org/TR/2001/REC-SVG-20010904/DTD/svg10.dtd">
<svg version="1.0" xmlns="http://www.w3.org/2000/svg"
 width="512.000000pt" height="512.000000pt" viewBox="0 0 512.000000 512.000000"
 preserveAspectRatio="xMidYMid meet">
<metadata>
Created by potrace 1.14, written by Peter Selinger 2001-2017
</metadata>
<g transform="translate(0.000000,512.000000) scale(0.100000,-0.100000)"
fill="#000000" stroke="none">
<path d="M2512 5107 c-53 -30 -57 -47 -58 -257 -2 -209 3 -244 41 -280 47 -44
146 -20 162 39 10 34 10 408 0 443 -14 51 -97 82 -145 55z"/>
<path d="M988 4472 c-29 -24 -44 -76 -34 -110 9 -26 280 -298 317 -317 49 -26
108 -4 133 50 8 17 13 39 11 50 -2 11 -4 25 -4 32 -1 14 -265 282 -302 307
-35 22 -86 17 -121 -12z"/>
<path d="M4010 4484 c-14 -10 -87 -80 -162 -157 -90 -91 -139 -148 -143 -167
-9 -42 19 -95 61 -115 58 -27 87 -10 245 148 173 173 188 204 132 267 -35 40
-96 50 -133 24z"/>
<path d="M2360 4340 c-25 -4 -64 -11 -87 -14 -51 -8 -178 -46 -250 -75 -427
-170 -761 -544 -883 -988 -11 -41 -23 -90 -26 -110 -3 -20 -8 -45 -11 -57 -12
-50 -11 -354 2 -431 55 -326 189 -590 414 -814 58 -58 122 -120 141 -137 30
-26 115 -118 151 -161 32 -41 114 -190 140 -258 24 -61 32 -98 34 -155 2 -89
-1 -100 -27 -100 -11 0 -35 -15 -54 -34 -37 -37 -45 -85 -23 -129 15 -29 50
-56 71 -57 23 0 29 -12 33 -74 3 -61 -2 -75 -34 -81 -30 -6 -49 -22 -67 -56
-32 -64 -8 -129 59 -159 36 -16 40 -22 43 -60 9 -97 84 -169 183 -175 25 -2
51 -4 58 -4 7 -1 19 -17 28 -36 10 -19 37 -53 62 -75 156 -144 391 -125 523
41 21 27 40 53 42 59 2 6 31 13 65 15 113 7 187 71 197 172 3 21 5 41 5 46 1
4 8 7 16 7 8 0 31 16 50 36 32 31 36 42 34 78 -4 52 -23 82 -68 106 -39 19
-39 17 -32 148 1 6 9 12 19 12 42 1 82 57 82 115 0 29 -8 45 -34 71 -19 19
-41 34 -50 34 -9 0 -16 6 -17 13 -10 132 1 186 67 324 65 134 146 237 329 418
92 91 185 194 217 240 61 87 168 289 168 317 0 9 4 19 9 23 5 3 13 20 17 38 3
17 14 57 24 87 10 31 21 76 24 100 3 25 10 70 15 100 13 83 10 304 -5 405 -65
413 -306 785 -657 1012 -163 106 -329 171 -562 219 -47 10 -385 13 -435 4z"/>
<path d="M400 2986 c-50 -16 -77 -73 -61 -126 20 -69 39 -74 266 -75 218 -2
261 6 285 50 27 50 7 119 -42 147 -31 17 -398 20 -448 4z"/>
<path d="M4272 2983 c-63 -30 -75 -115 -23 -166 l30 -31 222 -1 221 0 34 37
c36 40 40 57 23 106 -21 62 -41 67 -271 68 -160 1 -214 -2 -236 -13z"/>
<path d="M1273 1740 c-12 -5 -87 -74 -167 -154 -167 -168 -180 -195 -129 -265
27 -36 80 -48 121 -27 50 26 299 282 312 321 15 47 -10 102 -56 121 -38 16
-50 16 -81 4z"/>
<path d="M3764 1736 c-39 -17 -66 -72 -58 -115 5 -22 47 -72 155 -180 120
-121 155 -150 184 -155 70 -13 134 49 121 117 -6 30 -34 64 -152 182 -167 169
-185 179 -250 151z"/>
</g>
</svg>
